<mxfile host="app.diagrams.net" agent="Mozilla/5.0 (Windows NT 10.0; Win64; x64) AppleWebKit/537.36 (KHTML, like Gecko) Chrome/134.0.0.0 Safari/537.36 Edg/134.0.0.0" version="26.1.1">
  <diagram name="第 1 页" id="OmUafyZkPrsyJrEhxaM5">
    <mxGraphModel dx="781" dy="422" grid="1" gridSize="10" guides="1" tooltips="1" connect="1" arrows="1" fold="1" page="1" pageScale="1" pageWidth="827" pageHeight="1169" math="0" shadow="0">
      <root>
        <mxCell id="0" />
        <mxCell id="1" parent="0" />
        <mxCell id="Ule_PZoB-En0Op2e7sHV-19" value="" style="rounded=0;whiteSpace=wrap;html=1;dashed=1;fillColor=#fff2cc;strokeColor=#d6b656;" vertex="1" parent="1">
          <mxGeometry x="120" y="104" width="390" height="356" as="geometry" />
        </mxCell>
        <mxCell id="Ule_PZoB-En0Op2e7sHV-12" style="edgeStyle=orthogonalEdgeStyle;rounded=0;orthogonalLoop=1;jettySize=auto;html=1;exitX=1;exitY=0.5;exitDx=0;exitDy=0;entryX=0;entryY=0.5;entryDx=0;entryDy=0;shape=flexArrow;strokeWidth=1;width=19.25925925925926;endSize=8.185185185185185;fillColor=#7EA6E0;" edge="1" parent="1">
          <mxGeometry relative="1" as="geometry">
            <mxPoint x="265" y="396.96" as="sourcePoint" />
            <mxPoint x="360" y="141.96" as="targetPoint" />
            <Array as="points">
              <mxPoint x="310" y="396.96" />
              <mxPoint x="310" y="141.96" />
            </Array>
          </mxGeometry>
        </mxCell>
        <mxCell id="Ule_PZoB-En0Op2e7sHV-3" value="&lt;span style=&quot;font-size: 14px;&quot;&gt;挑选合适的传统算法和人工智能&lt;/span&gt;" style="rounded=1;whiteSpace=wrap;html=1;fillColor=#d5e8d4;strokeColor=#82b366;" vertex="1" parent="1">
          <mxGeometry x="135" y="370" width="130" height="60" as="geometry" />
        </mxCell>
        <mxCell id="Ule_PZoB-En0Op2e7sHV-13" style="edgeStyle=orthogonalEdgeStyle;rounded=0;orthogonalLoop=1;jettySize=auto;html=1;exitX=0.5;exitY=1;exitDx=0;exitDy=0;entryX=0.5;entryY=0;entryDx=0;entryDy=0;shape=flexArrow;fillColor=#7EA6E0;" edge="1" parent="1" source="Ule_PZoB-En0Op2e7sHV-4" target="Ule_PZoB-En0Op2e7sHV-5">
          <mxGeometry relative="1" as="geometry" />
        </mxCell>
        <mxCell id="Ule_PZoB-En0Op2e7sHV-4" value="&lt;span style=&quot;font-size: 14px;&quot;&gt;训练模型&lt;/span&gt;" style="rounded=1;whiteSpace=wrap;html=1;fillColor=#d5e8d4;strokeColor=#82b366;" vertex="1" parent="1">
          <mxGeometry x="360" y="114" width="100" height="50" as="geometry" />
        </mxCell>
        <mxCell id="Ule_PZoB-En0Op2e7sHV-14" style="edgeStyle=orthogonalEdgeStyle;rounded=0;orthogonalLoop=1;jettySize=auto;html=1;exitX=0.5;exitY=1;exitDx=0;exitDy=0;entryX=0.5;entryY=0;entryDx=0;entryDy=0;shape=flexArrow;fillColor=#7EA6E0;" edge="1" parent="1" source="Ule_PZoB-En0Op2e7sHV-5" target="Ule_PZoB-En0Op2e7sHV-7">
          <mxGeometry relative="1" as="geometry" />
        </mxCell>
        <mxCell id="Ule_PZoB-En0Op2e7sHV-16" style="edgeStyle=orthogonalEdgeStyle;rounded=0;orthogonalLoop=1;jettySize=auto;html=1;exitX=1;exitY=0.5;exitDx=0;exitDy=0;entryX=1;entryY=0.5;entryDx=0;entryDy=0;shape=flexArrow;fillColor=#7EA6E0;" edge="1" parent="1" source="Ule_PZoB-En0Op2e7sHV-5" target="Ule_PZoB-En0Op2e7sHV-4">
          <mxGeometry relative="1" as="geometry">
            <Array as="points">
              <mxPoint x="490" y="227" />
              <mxPoint x="490" y="139" />
            </Array>
          </mxGeometry>
        </mxCell>
        <mxCell id="Ule_PZoB-En0Op2e7sHV-5" value="&lt;font style=&quot;font-size: 14px;&quot;&gt;测试验证&lt;/font&gt;" style="rhombus;whiteSpace=wrap;html=1;fillColor=#d5e8d4;strokeColor=#82b366;" vertex="1" parent="1">
          <mxGeometry x="360" y="197" width="100" height="60" as="geometry" />
        </mxCell>
        <mxCell id="Ule_PZoB-En0Op2e7sHV-6" value="&lt;span style=&quot;font-size: 14px;&quot;&gt;系统部署&lt;/span&gt;" style="rounded=1;whiteSpace=wrap;html=1;fillColor=#d5e8d4;strokeColor=#82b366;" vertex="1" parent="1">
          <mxGeometry x="360" y="395" width="100" height="50" as="geometry" />
        </mxCell>
        <mxCell id="Ule_PZoB-En0Op2e7sHV-15" value="" style="edgeStyle=orthogonalEdgeStyle;rounded=0;orthogonalLoop=1;jettySize=auto;html=1;shape=flexArrow;fillColor=#7EA6E0;" edge="1" parent="1" source="Ule_PZoB-En0Op2e7sHV-7" target="Ule_PZoB-En0Op2e7sHV-6">
          <mxGeometry relative="1" as="geometry" />
        </mxCell>
        <mxCell id="Ule_PZoB-En0Op2e7sHV-7" value="&lt;font style=&quot;font-size: 14px;&quot;&gt;算法融合&lt;/font&gt;&lt;div&gt;&lt;font style=&quot;font-size: 14px;&quot;&gt;PLC控制程序融合&lt;/font&gt;&lt;/div&gt;" style="rounded=1;whiteSpace=wrap;html=1;fillColor=#d5e8d4;strokeColor=#82b366;" vertex="1" parent="1">
          <mxGeometry x="345" y="300" width="130" height="50" as="geometry" />
        </mxCell>
        <mxCell id="Ule_PZoB-En0Op2e7sHV-11" style="edgeStyle=orthogonalEdgeStyle;rounded=0;orthogonalLoop=1;jettySize=auto;html=1;exitX=0.5;exitY=1;exitDx=0;exitDy=0;entryX=0.5;entryY=0;entryDx=0;entryDy=0;shape=flexArrow;fillColor=#7EA6E0;" edge="1" parent="1" source="Ule_PZoB-En0Op2e7sHV-8" target="Ule_PZoB-En0Op2e7sHV-3">
          <mxGeometry relative="1" as="geometry" />
        </mxCell>
        <mxCell id="Ule_PZoB-En0Op2e7sHV-8" value="&lt;span style=&quot;font-size: 14px;&quot;&gt;数据标注&lt;/span&gt;" style="rounded=1;whiteSpace=wrap;html=1;fillColor=#d5e8d4;strokeColor=#82b366;" vertex="1" parent="1">
          <mxGeometry x="135" y="250" width="130" height="60" as="geometry" />
        </mxCell>
        <mxCell id="Ule_PZoB-En0Op2e7sHV-10" style="edgeStyle=orthogonalEdgeStyle;rounded=0;orthogonalLoop=1;jettySize=auto;html=1;exitX=0.5;exitY=1;exitDx=0;exitDy=0;shape=flexArrow;fillColor=#7EA6E0;" edge="1" parent="1" source="Ule_PZoB-En0Op2e7sHV-9" target="Ule_PZoB-En0Op2e7sHV-8">
          <mxGeometry relative="1" as="geometry" />
        </mxCell>
        <mxCell id="Ule_PZoB-En0Op2e7sHV-9" value="&lt;font style=&quot;font-size: 14px;&quot;&gt;数据采集&lt;/font&gt;&lt;div&gt;&lt;font style=&quot;font-size: 14px;&quot;&gt;汇总&lt;/font&gt;&lt;/div&gt;" style="rounded=1;whiteSpace=wrap;html=1;fillColor=#d5e8d4;strokeColor=#82b366;" vertex="1" parent="1">
          <mxGeometry x="135" y="130" width="130" height="60" as="geometry" />
        </mxCell>
        <mxCell id="Ule_PZoB-En0Op2e7sHV-17" value="Y" style="text;html=1;align=center;verticalAlign=middle;resizable=0;points=[];autosize=1;strokeColor=none;fillColor=none;" vertex="1" parent="1">
          <mxGeometry x="360" y="250" width="30" height="30" as="geometry" />
        </mxCell>
        <mxCell id="Ule_PZoB-En0Op2e7sHV-18" value="N" style="text;html=1;align=center;verticalAlign=middle;resizable=0;points=[];autosize=1;strokeColor=none;fillColor=none;" vertex="1" parent="1">
          <mxGeometry x="455" y="240" width="30" height="30" as="geometry" />
        </mxCell>
      </root>
    </mxGraphModel>
  </diagram>
</mxfile>
